<mxfile host="drawio-plugin" modified="2023-01-16T11:27:02.768Z" agent="5.0 (Macintosh; Intel Mac OS X 10_15_7) AppleWebKit/537.36 (KHTML, like Gecko) Chrome/104.0.5112.102 Safari/537.36" etag="FkS9FlfanFpRGCOizapc" version="20.5.3" type="embed"><diagram id="DWjpSvbVxY2pOprUcE6g" name="Page-1"><mxGraphModel dx="860" dy="784" grid="1" gridSize="10" guides="1" tooltips="1" connect="1" arrows="1" fold="1" page="1" pageScale="1" pageWidth="827" pageHeight="1169" math="0" shadow="0"><root><mxCell id="0"/><mxCell id="1" parent="0"/><mxCell id="232" value="" style="rounded=0;whiteSpace=wrap;html=1;" vertex="1" parent="1"><mxGeometry x="840" y="10" width="230" height="160" as="geometry"/></mxCell><mxCell id="160" value="" style="ellipse;whiteSpace=wrap;html=1;verticalAlign=top;sketch=1;fontFamily=Architects Daughter;fontSource=https%3A%2F%2Ffonts.googleapis.com%2Fcss%3Ffamily%3DArchitects%2BDaughter;strokeColor=#FFD966;fillColor=#FFEB99;" parent="1" vertex="1"><mxGeometry x="880" y="40" width="140" height="100" as="geometry"/></mxCell></root></mxGraphModel></diagram></mxfile>